<?xml version="1.0" encoding="utf-8"?>
<!-- Generator: Adobe Illustrator 28.1.0, SVG Export Plug-In . SVG Version: 6.00 Build 0)  -->
<svg version="1.1" id="Layer_2_00000169540287652872065560000010857911896221684156_"
	 xmlns="http://www.w3.org/2000/svg" xmlns:xlink="http://www.w3.org/1999/xlink" x="0px" y="0px" viewBox="0 0 472.8 535.4"
	 style="enable-background:new 0 0 472.8 535.4;" xml:space="preserve">
<style type="text/css">
	.st0{fill:#A01D20;}
</style>
<path class="st0" d="M66.2,484.1c11.1,0.6,22.2,1.2,33.3,1.8l48.6,31.4l93.6,13l80-18.4l33.8-24.3l33.4-2l42.5-22.3l33.2-49.2
	l-21.9-93.6l-55.1-104.3l7.4-82.4l-45.3,33.2c-12.6,15.8-25.3,31.6-37.9,47.4c-3.4,13-6.7,26.1-10.1,39.1l-6.5,30.2l-30.8-21.9
	l-6.8-36.1l29.3-120.3l-13-57.5l-24.9-27.3l-31.4,84.7c-22.9,25.5-45.8,51-68.7,76.4c-9.1,17-18.2,34-27.3,51l3,37.9l-14.2,9.5
	l-50.4-45l-27.3-5.3l5.9,84.7L5.9,429l14.2,34.4C35.5,470.3,50.8,477.2,66.2,484.1z"/>
<g id="Layer_1-2">
	<g>
		<path d="M40.1,235.4c0.3,2.5,0.3,3.7,0.7,4.7c8.5,22.9,7.7,46.3,2.7,69.5c-5.2,23.9-11.9,47.5-17.9,71.3
			c-4.1,16.4-7.5,32.8-6.4,49.9c1.4,22.4,13.4,37.4,33.1,46.8c4.6,2.2,9.4,4,13.9,6.5c-10.2,3.5-20.2,3.1-29.8-1.6
			c-15.8-7.6-26.3-20.6-34.8-35.5c-1-1.8-1.2-4.1-1.3-6.3c-0.8-15.1-0.1-30.1,3.6-44.7c5.8-22.9,12.3-45.7,19-68.4
			c5.2-17.8,9.5-35.7,9.5-54.4c-0.1-18.2-5.3-34.8-14.9-50.1c-1.2-1.9-2.3-3.9-4-6.6c2.1-0.1,3.3-0.4,4.5-0.2
			c28.8,4.7,55.6,14.1,77.5,34.3c16.6,15.3,26.9,34.6,33,56.2c1.5,5.5,2.6,11,3.9,16.5c1,4.4,2.9,5.6,6.7,3.2
			c5-3.2,9.6-7.1,14.2-10.9c9.1-7.6,18.5-14.7,30.8-16.7c4.7-0.8,3.8-3.8,2.2-6.7c-5.2-9.7-7.8-20.1-9.2-31
			c-2.7-21.4,1.2-41.7,9.4-61.5c4.4-10.7,11.4-19.5,19.3-27.6c10.1-10.4,20.4-20.6,30.2-31.2c6.6-7.1,10.2-15.8,12.4-25.3
			c1.3-5.6,3.4-11.2,5.6-16.5c1.1-2.6,3.5-4.5,5.4-6.8c0.5,0.2,1,0.4,1.4,0.6c0,1.8,0.1,3.7,0,5.5c-2,21.2-10.9,39.7-21.9,57.4
			c-9.6,15.6-19.9,30.8-28.8,46.8c-13.7,24.6-15.3,50.7-6.1,77.3c0.8,2.3,2.8,4.5,4.8,6c10.6,8.2,23.5,10.6,35.8,14.6
			c7.7,2.5,15.8,5,22.5,9.3c15.7,10.2,23.7,26,26.8,44c4.8,28.4-1.7,54.2-21.2,75.7c-13.9,15.3-31.9,21.9-52.6,20.4
			c-13.9-1-27-4.6-37.9-13.7c-18.1-14.9-21.1-41.2-11.6-62.8c4.3-9.8,10.7-18.3,19.2-25.2c12.9-10.4,26.8-9.6,41-3.9
			c12.9,5.2,21.7,14,23,28.8c1.8,19.2-18.5,38-35.8,32.8c-3-0.9-5.8-2.8-8.7-4.2c0-0.6,0-1.2,0-1.9c2.1-0.9,4.1-2.1,6.4-2.6
			c3.9-0.8,7.9-0.9,11.9-1.6c7.7-1.2,11.4-5.5,11.5-13.3c0-3-0.3-6-0.9-8.9c-2.2-12.4-10.9-18.2-23.3-15.7
			c-19.1,3.8-33,24.2-30.2,44c2.9,20.2,17.7,29.6,37.3,28.7c20.1-0.9,36.5-9.4,49.2-25c6.4-7.9,8.9-17.1,9.4-26.9
			c1-19.9-3.8-37.6-19.5-51.2c-11.2-9.7-24.2-15.1-38.8-16.7c-17.3-2-34,0.2-49.4,8.8c-20.8,11.7-32.7,30-37.1,53.1
			c-8.2,42.5,18.2,86,59.5,99c1.7,0.5,3.6,1.1,5.4,1.2c15,0.4,30,1.4,44.8-2.3c32.3-7.9,56.7-26.2,71-56.4
			c10.5-22.3,13.8-45.7,5.1-69.4c-3-8.2-7.5-16.1-12.9-22.9c-7.9-9.9-17-18.8-25.9-27.7c-10.9-10.9-22-21.5-29.5-35.1
			c-1.8-3.3-2.9-7.4-3.1-11.3c-1.2-21.2,3.8-41.7,8.5-62.2c5.7-24.8,12.4-49.5,16.5-74.6c4-24-0.4-47.2-14.4-67.8
			c-0.8-1.2-1.7-2.3-3.1-4.2c-1.1,2.3-2,3.8-2.6,5.4c-9.4,23.4-18.3,47-32.9,67.7c-6.4,9.1-13.8,17.5-21.3,25.8
			c-15.9,17.7-32.9,34.4-48.2,52.7c-15.7,18.9-24.7,41-22.2,66.1c1.1,11,4.9,21.6,7.5,32.5c0.4,1.7,0.4,3.4,0.5,5.1
			c-1.9-0.3-4.4,0.1-5.5-0.9c-3.4-3.3-7-6.8-9.2-10.9c-14.6-27.4-12-55,0.4-82.3c9.5-20.9,24.3-38.1,39.4-55.1
			C181.8,124.6,200,104,217.7,83c9.6-11.5,15.5-25.2,19.4-39.7c0.8-2.8,1.1-5.9,1.1-8.9c0.1-8.8,0-17.7,0.1-26.5
			c0-2.9-0.7-6.6,3.3-7.4c4.1-0.9,8.3-1,11.1,3.5c7.7,12.3,15.7,24.4,23.1,36.8c7.2,12.2,13.1,25.1,16.6,38.9
			c7.2,28.2,3.5,55.4-6.5,82.3c-6.9,18.6-13.3,37.4-19.4,56.2c-1.6,5-1.8,10.5-2,15.8c-0.7,17.2,7.9,29.4,21.7,38.6
			c3.1,2.1,4.7,1.6,5.1-2.5c1.3-12.7,2.8-25.4,4.3-38.2c0.2-1.4,0.7-2.9,1.5-4.2c12.2-21.1,24.6-42,40.4-60.7
			c20.3-24.1,44.7-42.3,75.2-51.6c1.7-0.5,3.5-1,6.4-1.8c-0.9,2.7-1.4,4.5-2.2,6.2c-7.4,15.2-13.8,30.7-17,47.4
			c-4.9,25.1-1.3,49,8.1,72.4c10,25.2,24.4,48.1,37.5,71.7c11.1,20,21.1,40.4,25.8,63.1c7.2,34.7-8.2,75.1-36.6,93.9
			c-13.8,9.1-29.3,14-45.5,17.1c3.5-2.4,7.1-4.7,10.5-7.3c9.9-7.4,19.9-14.6,29.4-22.4c12-9.9,18-23.3,21-38.2
			c4.4-21.3,2.3-41.9-4.9-62.4c-9.7-27.7-26.6-51.4-40.2-77c-8-15.1-15.8-30.5-21.9-46.5c-10.2-26.7-8.7-53.6,2.8-79.8
			c0.6-1.4,1.1-2.8,1.6-4.2c0.1-0.3-0.1-0.6-0.2-1.3c-0.9,0.2-1.9,0.3-2.6,0.8c-27.5,18.1-51.9,39.4-65.6,70.2
			c-11.5,25.6-13.6,52.2-4.2,78.8c3.1,8.8,8.9,16.7,13.5,25c3.9,6.8,8.3,13.3,11.7,20.3c6.5,13.7,6.7,28.3,5.2,43.1
			c-2.5,25.6-11.2,48.9-25.7,70.1c-10.3,15.2-24.7,25-41.8,31.1c-27.1,9.7-54.6,9.3-82.2,2.9c-18.1-4.2-35.1-11.3-49.7-22.7
			c-23.3-18.1-36.2-41.5-32.8-72c1.3-11.8,4.5-23.5,4.4-35.2c-0.3-31.5-3.4-62.5-25.2-87.9c-10.7-12.5-24-21.6-38.4-29.1
			C49.6,240,45.5,238,40.1,235.4L40.1,235.4z"/>
		<path d="M76.1,283.4c1.9,2.4,4.1,4.6,5.6,7.3c7,12.1,10.2,25.2,10.7,39.1c0.9,23.1-3.7,45.8-5.4,68.7c-1.1,14.6-1.4,29.3-0.8,43.9
			c0.9,19.5,11,34.5,25.8,46.7c19.2,15.8,41.7,24.3,65.5,29.2c38.3,7.9,76.4,7.4,114.3-3.2c35.3-9.9,58.9-33,75.2-64.9
			c16-31.3,14.8-63.7,6.1-96.4c-4.9-18.3-10.7-36.5-16.5-54.5c-5.2-16.5-8.9-33.2-9.1-50.5c-0.2-14.6,1.4-29.2,7.3-43
			c0,10-0.6,20.1,0.1,30.1c1.7,25.6,9.5,50,16.8,74.4c7.2,24.2,14.2,48.6,19.9,73.3c5.3,23.1,4.4,46.4-4.3,68.9
			c-7.7,20-20.9,35.8-38.3,48.1c-30.5,21.6-65,30.7-101.6,33.9c-37.5,3.2-73.9-1.8-108.8-15.9c-27.4-11-51.2-27.1-66.8-53.1
			c-2-3.4-3.2-7.8-3.3-11.7c-1.2-25.5,3.7-50.4,8-75.4c3.2-18,6.4-36,5.9-54.5c-0.3-12.5-2.6-24.5-6.6-36.2
			c-0.4-1.1-0.6-2.2-0.9-3.3C75.2,284,75.7,283.7,76.1,283.4L76.1,283.4z"/>
	</g>
</g>
</svg>
