<?xml version="1.0" encoding="UTF-8"?>
<svg id="Layer_2" data-name="Layer 2" xmlns="http://www.w3.org/2000/svg" viewBox="0 0 174.53 170.52">
  <defs>
    <style>
      .cls-1, .cls-2 {
        stroke-width: 0px;
      }

      .cls-2 {
        fill: #da543e;
      }
    </style>
  </defs>
  <g id="Layer_1-2" data-name="Layer 1">
    <g>
      <path class="cls-1" d="M84.69,170.52c-29.19-1.37-51.46-13.27-68.73-35.77C-9.93,101.02-1.99,55.34,23.04,26.92,48.36-1.84,91.67-6.69,125.46,8.24c27.35,12.08,44.04,33.28,48.48,63.11,1.84,12.35-.76,24.55-4.92,36.27-6.52,18.35-16.2,34.48-31.95,46.68-11.02,8.54-23.31,13.25-36.98,14.76-5.45.6-10.92,1.04-15.39,1.47ZM85.76,164.51c15.78-.16,27.98-3.14,37.14-8.08,18.69-10.08,30.32-26.28,38.63-44.98,7.49-16.88,9.94-34.69,3.16-52.43-8.22-21.51-22.1-38.19-44.12-46.87-16.31-6.43-33.02-8.07-50.39-4.59-30.44,6.1-48.59,26.04-60.02,53.11-4.88,11.56-3.19,24.06-1.67,36.42,4.69,38.17,38.83,68.57,77.27,67.41Z"/>
      <path class="cls-2" d="M85.76,164.51c-38.44,1.15-72.59-29.24-77.27-67.41-1.52-12.36-3.21-24.86,1.67-36.42C21.58,33.61,39.73,13.66,70.18,7.57c17.38-3.48,34.08-1.84,50.39,4.59,22.02,8.67,35.9,25.35,44.12,46.87,6.78,17.74,4.33,35.56-3.16,52.43-8.31,18.7-19.94,34.91-38.63,44.98-9.16,4.94-21.36,7.92-37.14,8.08ZM140.39,108.39c1.4-.38,2.81-.77,4.24-1.14,6.95-1.78,10.34-6.78,7.93-13.4-2.42-6.64-2.17-12.79-.24-19.43,1.96-6.72-.43-10.87-6.83-14.19-.71-.37-1.34-.88-1.97-1.3,3.51-8.16,2.7-10.15-4.65-15.44-4.57-3.29-9.18-6.77-12.88-10.95-5.08-5.74-10.52-9.06-18.15-6.63-4.23-6.38-6.61-7.75-12.82-6.05-6.16,1.69-11.96,1.43-18.13-.14-5.63-1.43-11.19-.46-15.25,4.69-.65.82-2.52,1.01-3.8.96-7.33-.31-12.21,2.83-15.65,9.33-2.13,4.03-4.79,7.92-7.85,11.29-3.23,3.56-5.16,7.08-4.65,12.06.16,1.62-1.12,4.03-2.5,5.05-5.82,4.3-7.41,8.71-5.84,16.05.93,4.34,1.52,8.83,1.53,13.25.02,6.4-.14,12.58,7.52,14.71-3.17,8.88-1.74,12.05,5.9,16.1,2.54,1.34,4.74,3.61,6.59,5.87,2.31,2.82,4,6.13,6.12,9.11,3.38,4.73,8.25,6.05,13.62,3.83,1.48-.61,2.9-1.36,4.52-2.12,2.43,4.96,6.02,7.86,11.33,8.24,4.14.3,8.3.44,12.43.91,7.85.88,14.81.15,17.29-8.91,7.71,1.97,10.28.84,15.09-5.03,2.47-3.02,5.35-6.04,8.67-7.97,8.98-5.23,10.76-8.54,8.44-18.77Z"/>
      <path class="cls-1" d="M140.39,108.39c2.31,10.23.53,13.54-8.44,18.77-3.32,1.94-6.2,4.95-8.67,7.97-4.81,5.87-7.38,7-15.09,5.03-2.48,9.06-9.43,9.79-17.29,8.91-4.13-.46-8.29-.61-12.43-.91-5.31-.38-8.9-3.28-11.33-8.24-1.61.76-3.04,1.5-4.52,2.12-5.37,2.22-10.24.9-13.62-3.83-2.12-2.98-3.81-6.29-6.12-9.11-1.85-2.26-4.06-4.53-6.59-5.87-7.64-4.05-9.07-7.22-5.9-16.1-7.67-2.12-7.5-8.31-7.52-14.71-.02-4.43-.61-8.92-1.53-13.25-1.57-7.34.03-11.75,5.84-16.05,1.38-1.02,2.67-3.43,2.5-5.05-.5-4.98,1.42-8.5,4.65-12.06,3.06-3.37,5.72-7.26,7.85-11.29,3.44-6.5,8.32-9.65,15.65-9.33,1.28.05,3.15-.14,3.8-.96,4.07-5.14,9.62-6.12,15.25-4.69,6.17,1.57,11.98,1.83,18.13.14,6.21-1.7,8.59-.33,12.82,6.05,7.64-2.43,13.08.9,18.15,6.63,3.7,4.18,8.31,7.66,12.88,10.95,7.35,5.29,8.16,7.28,4.65,15.44.63.42,1.26.93,1.97,1.3,6.4,3.32,8.79,7.47,6.83,14.19-1.93,6.64-2.18,12.78.24,19.43,2.41,6.63-.98,11.62-7.93,13.4-1.42.37-2.84.76-4.24,1.14ZM104.39,66.62c1.68,1.28,3.26,3.47,5.07,3.68,8.44,1.01,25.04-8.59,28.8-16.2,2.22-4.49,1.15-7.35-3.84-8.52-5.62-1.31-9.08-4.13-11.43-9.68-3.65-8.66-11.58-9.17-16.09-.92-3.84,7.04-6.58,14.8-8.91,22.52-1.7,5.63.32,7.48,6.4,9.12ZM112.7,84.25c-3.43,4.66-3.37,7.05,1.41,9.28,5.94,2.78,12.25,4.94,18.58,6.66,3.19.87,6.89.67,10.2.07,3.95-.71,5.28-3.9,3.09-7.16-4.74-7.05-3.69-13.21,1.34-19.56,2.32-2.92,1.02-6.26-2.62-7.32-2.5-.73-5.4-1.34-7.83-.78-7.07,1.65-14.21,3.41-20.93,6.1-7.34,2.93-7.81,5.93-3.25,12.69ZM86.43,57.74c2.75,1.96,5.53,6.49,8.02,1.22,4.12-8.73,6.97-18.01,6.4-27.91-.34-6.02-3.92-8.55-9.41-6.38-4.7,1.85-8.58,2.49-13.44-.61-6.47-4.12-11.13-1.25-11.19,6.43-.03,4.38.79,8.95,2.2,13.11,1.53,4.52,4.15,8.68,6.36,12.96,3.42,6.62,5.98,6.92,11.07,1.18ZM61.17,85.56c3.82-4.5,3.98-8.03-.87-10.18-8.4-3.72-17.2-7.27-26.18-8.79-8.53-1.44-11.93,4.85-7.38,12.24,2.59,4.19,2.51,8.1.84,12.31-1.44,3.63-.24,6.15,3.48,6.59,9.98,1.17,19.97.87,29.37-3.08,5.66-2.37,5.72-4.83.74-9.08ZM68.36,102.72c-1.41-5.2-3.81-7.16-8.79-5.29-6.59,2.48-13.22,5.49-18.9,9.57-6.89,4.94-6.29,9.41.9,13.81,4.51,2.76,8.36,5.77,10.17,11.07,1.71,4.99,3.24,5.46,7.72,2.7,8.71-5.35,12.24-14.1,14.71-23.38,1.76-6.63,1.02-7.58-5.81-8.48ZM68.08,65.61c6.81-1.42,8.15-3.21,5.16-9.13-3.72-7.36-8.09-14.43-12.73-21.25-1.35-1.98-5.36-4.32-6.73-3.64-2.32,1.16-4.53,4.42-4.98,7.09-1.07,6.35-2.87,11.19-9.89,13.26-5,1.47-5.48,4.42-1.24,7.41,6.87,4.85,14.1,9.3,21.58,13.16,6.63,3.42,9.57.93,8.84-6.9ZM98.61,107.56c.13,7.84,7.01,21.85,11.68,25.57,4.41,3.51,7.19,3,9.7-2.23,2.27-4.72,5.43-7.56,10.91-8.16,5.96-.65,8.23-5.75,4.04-9.9-5.97-5.9-12.87-10.86-19.51-16.06-1.07-.84-2.84-.79-4.29-1.14-3.85-.92-6.02.36-6.59,4.51-.18,1.28-1.5,2.47-2.44,3.58-1.4,1.66-2.93,3.21-3.5,3.83ZM87.01,110.65c-6.5-5.72-8.78-5.2-11.38,3.46-1.66,5.53-2.86,11.3-3.39,17.04-.87,9.46,4.1,13.14,13.12,11.1,2.7-.61,5.87.67,8.79,1.27,2.13.44,5.13,2.3,6.08,1.52,1.6-1.33,2.86-4.39,2.56-6.47-1.27-8.66-2.6-17.4-5.01-25.79-2.23-7.76-5.27-8.04-10.78-2.12ZM107.11,83.9c-.05-11.57-8.49-19.41-20.78-19.32-9.77.07-18.78,9.62-18.63,19.76.16,10.74,8.55,19.36,18.82,19.36,11.72-.01,20.65-8.59,20.59-19.8Z"/>
      <path class="cls-2" d="M104.39,66.62c-6.08-1.64-8.11-3.49-6.4-9.12,2.33-7.71,5.07-15.48,8.91-22.52,4.51-8.26,12.44-7.74,16.09.92,2.34,5.56,5.81,8.37,11.43,9.68,4.99,1.17,6.05,4.03,3.84,8.52-3.76,7.61-20.36,17.21-28.8,16.2-1.81-.22-3.38-2.4-5.07-3.68Z"/>
      <path class="cls-2" d="M112.7,84.25c-4.57-6.76-4.09-9.76,3.25-12.69,6.72-2.69,13.86-4.45,20.93-6.1,2.43-.57,5.33.05,7.83.78,3.64,1.06,4.94,4.39,2.62,7.32-5.03,6.35-6.08,12.51-1.34,19.56,2.18,3.25.86,6.45-3.09,7.16-3.31.59-7.01.8-10.2-.07-6.34-1.72-12.64-3.88-18.58-6.66-4.77-2.24-4.84-4.62-1.41-9.28Z"/>
      <path class="cls-2" d="M86.43,57.74c-5.09,5.74-7.64,5.45-11.07-1.18-2.21-4.28-4.83-8.44-6.36-12.96-1.41-4.16-2.23-8.73-2.2-13.11.06-7.68,4.72-10.56,11.19-6.43,4.86,3.1,8.75,2.46,13.44.61,5.49-2.17,9.07.36,9.41,6.38.57,9.9-2.28,19.18-6.4,27.91-2.49,5.28-5.28.75-8.02-1.22Z"/>
      <path class="cls-2" d="M61.17,85.56c4.98,4.25,4.92,6.7-.74,9.08-9.4,3.95-19.39,4.25-29.37,3.08-3.73-.44-4.93-2.95-3.48-6.59,1.67-4.21,1.75-8.11-.84-12.31-4.55-7.38-1.15-13.68,7.38-12.24,8.98,1.52,17.78,5.06,26.18,8.79,4.85,2.15,4.68,5.68.87,10.18Z"/>
      <path class="cls-2" d="M68.36,102.72c6.83.89,7.57,1.84,5.81,8.48-2.46,9.29-6,18.04-14.71,23.38-4.48,2.75-6.01,2.29-7.72-2.7-1.82-5.3-5.67-8.31-10.17-11.07-7.19-4.4-7.79-8.86-.9-13.81,5.68-4.08,12.31-7.09,18.9-9.57,4.98-1.88,7.38.09,8.79,5.29Z"/>
      <path class="cls-2" d="M68.08,65.61c.73,7.83-2.21,10.32-8.84,6.9-7.47-3.85-14.7-8.31-21.58-13.16-4.24-2.99-3.76-5.94,1.24-7.41,7.02-2.07,8.82-6.91,9.89-13.26.45-2.68,2.65-5.93,4.98-7.09,1.37-.68,5.38,1.65,6.73,3.64,4.64,6.83,9.01,13.89,12.73,21.25,2.99,5.92,1.66,7.72-5.16,9.13Z"/>
      <path class="cls-2" d="M98.61,107.56c.57-.61,2.1-2.17,3.5-3.83.94-1.11,2.26-2.29,2.44-3.58.57-4.15,2.73-5.43,6.59-4.51,1.45.35,3.22.3,4.29,1.14,6.64,5.19,13.55,10.15,19.51,16.06,4.19,4.15,1.92,9.25-4.04,9.9-5.48.6-8.64,3.44-10.91,8.16-2.52,5.23-5.29,5.74-9.7,2.23-4.67-3.72-11.55-17.72-11.68-25.57Z"/>
      <path class="cls-2" d="M87.01,110.65c5.51-5.91,8.55-5.63,10.78,2.12,2.41,8.39,3.74,17.12,5.01,25.79.3,2.08-.95,5.14-2.56,6.47-.95.78-3.95-1.08-6.08-1.52-2.92-.6-6.09-1.88-8.79-1.27-9.02,2.04-13.99-1.63-13.12-11.1.53-5.74,1.73-11.51,3.39-17.04,2.6-8.67,4.88-9.18,11.38-3.46Z"/>
      <path class="cls-2" d="M107.11,83.9c.05,11.21-8.87,19.79-20.59,19.8-10.27,0-18.66-8.62-18.82-19.36-.15-10.13,8.86-19.69,18.63-19.76,12.29-.09,20.73,7.75,20.78,19.32ZM90.07,94.45c2.26,1.23,4.81,3.25,6.47-.35.5-1.09-.51-4.15-1.34-4.37-3.79-.99-4.55,1.92-5.02,4.82-1.03-.49-2.14-1.49-3.08-1.36-1.43.21-2.75,1.2-4.12,1.86.62,1.23,1.07,3.3,1.92,3.49,1.23.26,2.9-.63,4.1-1.44.66-.44.74-1.74,1.08-2.65ZM86.29,79.84c-1.24,2.27-2.71,3.77-2.41,4.71.42,1.34,2.15,2.26,3.31,3.36,1.02-1.13,2.98-2.39,2.85-3.36-.19-1.38-1.92-2.55-3.75-4.71ZM99.86,76.72c-2.11-1.27-3.47-2.74-4.63-2.61-1.18.13-2.17,1.86-3.25,2.89,1.26,1.1,2.38,2.78,3.81,3.1.86.19,2.19-1.74,4.07-3.37ZM79.13,80.92c1.38-2.03,2.9-3.29,2.86-4.5-.04-1.14-1.73-2.22-2.69-3.33-1.1,1.18-2.82,2.23-3.1,3.57-.2.96,1.52,2.33,2.93,4.25ZM98.41,80.25c-1.45,1.92-3.25,3.32-3.03,4.22.33,1.36,2.08,2.38,3.22,3.54.97-1.13,2.65-2.22,2.71-3.4.06-1.16-1.52-2.4-2.91-4.36ZM91.64,73.74c-1.82-1.49-3.3-3.41-4.04-3.15-1.35.46-2.25,2.21-3.34,3.42,1.14.97,2.22,2.62,3.42,2.71,1.05.08,2.23-1.59,3.96-2.97ZM78.67,97.35c1.35-2.19,2.93-3.65,2.68-4.63-.29-1.14-2.12-2.38-3.44-2.58-.84-.12-2.91,1.91-2.75,2.38.51,1.47,1.83,2.66,3.5,4.82ZM80.84,84.66c-2.02-1.39-3.26-2.91-4.41-2.84-.98.06-2.67,2.02-2.56,2.98.12,1.14,1.76,2.83,2.87,2.94,1.02.1,2.22-1.58,4.1-3.08Z"/>
      <path class="cls-1" d="M90.19,94.57c.44-2.92,1.21-5.83,5-4.84.83.22,1.85,3.28,1.34,4.37-1.66,3.6-4.2,1.58-6.47.35l.12.12Z"/>
      <path class="cls-1" d="M86.29,79.84c1.83,2.16,3.56,3.33,3.75,4.71.13.97-1.82,2.23-2.85,3.36-1.17-1.1-2.89-2.02-3.31-3.36-.3-.94,1.17-2.44,2.41-4.71Z"/>
      <path class="cls-1" d="M99.86,76.72c-1.87,1.63-3.2,3.56-4.07,3.37-1.43-.31-2.56-1.99-3.81-3.1,1.07-1.03,2.07-2.75,3.25-2.89,1.17-.13,2.52,1.34,4.63,2.61Z"/>
      <path class="cls-1" d="M79.13,80.92c-1.4-1.92-3.13-3.29-2.93-4.25.28-1.35,2-2.4,3.1-3.57.96,1.11,2.65,2.19,2.69,3.33.04,1.21-1.49,2.47-2.86,4.5Z"/>
      <path class="cls-1" d="M98.41,80.25c1.39,1.96,2.97,3.2,2.91,4.36-.06,1.18-1.74,2.27-2.71,3.4-1.14-1.16-2.89-2.18-3.22-3.54-.22-.9,1.57-2.3,3.03-4.22Z"/>
      <path class="cls-1" d="M91.64,73.74c-1.73,1.38-2.91,3.05-3.96,2.97-1.2-.09-2.29-1.74-3.42-2.71,1.09-1.21,2-2.96,3.34-3.42.74-.25,2.22,1.66,4.04,3.15Z"/>
      <path class="cls-1" d="M78.67,97.35c-1.67-2.16-2.99-3.35-3.5-4.82-.17-.48,1.91-2.51,2.75-2.38,1.31.2,3.14,1.44,3.44,2.58.25.98-1.33,2.44-2.68,4.63Z"/>
      <path class="cls-1" d="M80.84,84.66c-1.88,1.5-3.08,3.18-4.1,3.08-1.11-.11-2.74-1.8-2.87-2.94-.1-.96,1.58-2.92,2.56-2.98,1.15-.07,2.39,1.45,4.41,2.84Z"/>
      <path class="cls-1" d="M90.07,94.45c-.34.91-.43,2.21-1.08,2.65-1.2.81-2.87,1.7-4.1,1.44-.85-.18-1.29-2.26-1.92-3.49,1.37-.66,2.69-1.66,4.12-1.86.94-.14,2.05.87,3.09,1.37.01.01-.11-.11-.11-.11Z"/>
    </g>
  </g>
</svg>